<?xml version="1.0" encoding="UTF-8" standalone="no"?>
<svg
   xmlns:dc="http://purl.org/dc/elements/1.1/"
   xmlns:cc="http://creativecommons.org/ns#"
   xmlns:rdf="http://www.w3.org/1999/02/22-rdf-syntax-ns#"
   xmlns:svg="http://www.w3.org/2000/svg"
   xmlns="http://www.w3.org/2000/svg"
   xmlns:sodipodi="http://sodipodi.sourceforge.net/DTD/sodipodi-0.dtd"
   xmlns:inkscape="http://www.inkscape.org/namespaces/inkscape"
   width="94.825455mm"
   height="97.09156mm"
   viewBox="0 0 94.825455 97.09156"
   version="1.1"
   id="svg8"
   inkscape:version="1.0.1 (0767f8302a, 2020-10-17)"
   sodipodi:docname="dd.svg">
  <defs
     id="defs2">
    <inkscape:path-effect
       effect="spiro"
       id="path-effect839"
       is_visible="true"
       lpeversion="1" />
    <inkscape:path-effect
       effect="spiro"
       id="path-effect835"
       is_visible="true"
       lpeversion="1" />
  </defs>
  <sodipodi:namedview
     id="base"
     pagecolor="#ffffff"
     bordercolor="#666666"
     borderopacity="1.0"
     inkscape:pageopacity="0.0"
     inkscape:pageshadow="2"
     inkscape:zoom="2.8"
     inkscape:cx="234.59121"
     inkscape:cy="138.6053"
     inkscape:document-units="mm"
     inkscape:current-layer="layer1"
     inkscape:document-rotation="0"
     showgrid="false"
     inkscape:window-width="1920"
     inkscape:window-height="978"
     inkscape:window-x="0"
     inkscape:window-y="32"
     inkscape:window-maximized="1" />
  <metadata
     id="metadata5">
    <rdf:RDF>
      <cc:Work
         rdf:about="">
        <dc:format>image/svg+xml</dc:format>
        <dc:type
           rdf:resource="http://purl.org/dc/dcmitype/StillImage" />
        <dc:title></dc:title>
      </cc:Work>
    </rdf:RDF>
  </metadata>
  <g
     inkscape:label="Calque 1"
     inkscape:groupmode="layer"
     id="layer1"
     transform="translate(-46.043838,-2.0071831)">
    <path
       style="fill:#00ff00;fill-opacity:0.3;stroke:#000000;stroke-width:0.264583px;stroke-linecap:butt;stroke-linejoin:miter;stroke-opacity:1"
       d="m 51.267642,47.065562 c 3.193004,-4.204296 7.091686,-7.924665 11.678264,-10.538988 4.586578,-2.614323 11.775653,-3.993391 17.019551,-4.60406 6.061633,-0.705897 9.808749,3.972337 14.528783,7.882499 3.390854,2.809044 9.09655,9.393483 13.81745,12.241408 1.62008,0.977329 5.85672,3.957699 5.88251,5.849575 0.0296,2.170887 -0.82715,2.172785 -0.11303,3.399044 1.92967,3.313582 -0.11369,4.876928 -0.39002,7.191137 -0.26935,2.255768 -0.27891,4.557541 -0.87151,6.750682 -0.2963,1.09657 -0.74111,2.161985 -1.40088,3.086629 -0.65977,0.924644 -1.54265,1.705063 -2.58607,2.153997 -1.09916,0.472919 -2.3338,0.562908 -3.52344,0.434204 -1.18964,-0.128704 -2.34572,-0.466975 -3.48765,-0.824446 -1.14194,-0.35747 -2.281577,-0.736779 -3.458717,-0.951602 -1.17714,-0.214822 -2.403997,-0.260389 -3.560105,0.04819 -1.162703,0.31034 -2.214354,0.971087 -3.083746,1.803162 -0.869391,0.832074 -1.564421,1.832067 -2.149188,2.883845 -1.169533,2.103557 -1.913248,4.423577 -3.100385,6.51725 -2.485724,4.3839 -6.991483,7.600618 -11.969202,8.387837 -1.952064,0.308716 -3.971581,0.255847 -5.879644,-0.259082 -1.908064,-0.514929 -3.700884,-1.50105 -5.08386,-2.91287 -1.382975,-1.41182 -2.341502,-3.255431 -2.600173,-5.214754 -0.258672,-1.959324 0.204562,-4.023372 1.359689,-5.626974 1.110843,-1.542125 2.76485,-2.5831 4.222563,-3.802607 0.728856,-0.609754 1.419923,-1.276577 1.957532,-2.060163 0.53761,-0.783586 0.917605,-1.692906 0.97776,-2.641279 0.05581,-0.87985 -0.167705,-1.768635 -0.590251,-2.542395 -0.422546,-0.773761 -1.039183,-1.434203 -1.753812,-1.950494 -1.429258,-1.03258 -3.207833,-1.476072 -4.964151,-1.632116 -1.756317,-0.156044 -3.524453,-0.04683 -5.28722,-0.08749 -1.762767,-0.04066 -3.557984,-0.241186 -5.16145,-0.974602 -1.921693,-0.878971 -3.463216,-2.500915 -4.388263,-4.400857 -0.925047,-1.899942 -1.252998,-4.06241 -1.094596,-6.169636 0.316802,-4.214452 2.49712,-8.069318 5.053261,-11.435044 z"
       id="path833"
       sodipodi:nodetypes="ssssssssssssssssssssssssssssssssss" />
    <g
       id="g903"
       style="opacity:1"
       transform="translate(0.51954756,-1.1519555)">
      <path
         id="path905"
         style="color:#000000;font-style:normal;font-variant:normal;font-weight:normal;font-stretch:normal;font-size:medium;line-height:normal;font-family:sans-serif;font-variant-ligatures:normal;font-variant-position:normal;font-variant-caps:normal;font-variant-numeric:normal;font-variant-alternates:normal;font-variant-east-asian:normal;font-feature-settings:normal;font-variation-settings:normal;text-indent:0;text-align:start;text-decoration:none;text-decoration-line:none;text-decoration-style:solid;text-decoration-color:#000000;letter-spacing:normal;word-spacing:normal;text-transform:none;writing-mode:lr-tb;direction:ltr;text-orientation:mixed;dominant-baseline:auto;baseline-shift:baseline;text-anchor:start;white-space:normal;shape-padding:0;shape-margin:0;inline-size:0;clip-rule:nonzero;display:inline;overflow:visible;visibility:visible;isolation:auto;mix-blend-mode:normal;color-interpolation:sRGB;color-interpolation-filters:linearRGB;solid-color:#000000;solid-opacity:1;vector-effect:none;fill:#ff0000;fill-opacity:0.3;fill-rule:nonzero;stroke:none;stroke-width:0.999999px;stroke-linecap:butt;stroke-linejoin:miter;stroke-miterlimit:4;stroke-dasharray:none;stroke-dashoffset:0;stroke-opacity:1;color-rendering:auto;image-rendering:auto;shape-rendering:auto;text-rendering:auto;enable-background:accumulate;stop-color:#000000;stop-opacity:1"
         d="m 209.01562,-3.84375 c -1.2506,0.016696 -2.50123,0.056004 -3.75195,0.125 -10.00575,0.5519686 -20.17625,3.05662545 -28.23437,9.0136719 -6.23337,4.6080778 -10.90309,11.0566041 -14.51758,17.9140621 -3.61449,6.857458 -6.25359,14.176305 -9.10938,21.382813 -12.21947,30.83557 -28.85304,61.125593 -29.90625,94.277343 -0.77298,24.33104 7.32027,48.769 22.07032,68.13477 14.75004,19.36577 35.99532,33.59516 59.38281,40.34961 13.61985,3.93349 28.25577,5.37111 41.98437,1.83593 6.86431,-1.76759 13.43745,-4.77571 19.08399,-9.06054 5.64654,-4.28484 10.35011,-9.86271 13.35351,-16.28321 5.1289,-10.96433 5.0653,-23.51592 6.4336,-35.54297 0.68417,-6.01352 1.76343,-12.03431 4.02929,-17.64648 2.26583,-5.61217 5.79079,-10.82767 10.6875,-14.38477 4.17672,-3.03408 9.17682,-4.75161 14.22657,-5.82421 5.04979,-1.07261 10.20551,-1.53986 15.30859,-2.32032 5.10308,-0.78046 10.21774,-1.8963 14.85352,-4.16797 4.63574,-2.27166 8.79616,-5.80042 11.04101,-10.44921 1.3434,-2.78196 1.96226,-5.89122 1.94336,-8.98047 -0.0206,-3.08926 -0.67262,-6.15959 -1.77148,-9.04688 -2.19776,-5.77456 -6.11913,-10.74269 -10.46094,-15.13867 C 341.3203,95.947778 336.51585,92.035969 332.09766,87.716797 327.67943,83.397625 323.59795,78.588525 321.09961,72.9375 318.3703,66.764001 317.66299,59.911402 317.11719,53.183594 316.57139,46.455789 316.13285,39.618901 313.875,33.257812 311.32265,26.066948 306.50322,19.78851 300.5957,14.958984 294.68819,10.129459 287.71967,6.7020187 280.46094,4.3496094 265.94347,-0.35520927 250.45908,-0.81629895 235.25586,-2.140625 226.52059,-2.901538 217.76988,-3.9606215 209.01562,-3.84375 Z"
         transform="matrix(0.26458333,0,0,0.26458333,45.52429,4.3106992)" />
      <path
         style="color:#000000;font-style:normal;font-variant:normal;font-weight:normal;font-stretch:normal;font-size:medium;line-height:normal;font-family:sans-serif;font-variant-ligatures:normal;font-variant-position:normal;font-variant-caps:normal;font-variant-numeric:normal;font-variant-alternates:normal;font-variant-east-asian:normal;font-feature-settings:normal;font-variation-settings:normal;text-indent:0;text-align:start;text-decoration:none;text-decoration-line:none;text-decoration-style:solid;text-decoration-color:#000000;letter-spacing:normal;word-spacing:normal;text-transform:none;writing-mode:lr-tb;direction:ltr;text-orientation:mixed;dominant-baseline:auto;baseline-shift:baseline;text-anchor:start;white-space:normal;shape-padding:0;shape-margin:0;inline-size:0;clip-rule:nonzero;display:inline;overflow:visible;visibility:visible;isolation:auto;mix-blend-mode:normal;color-interpolation:sRGB;color-interpolation-filters:linearRGB;solid-color:#000000;solid-opacity:1;vector-effect:none;fill:#000000;fill-opacity:1;fill-rule:nonzero;stroke:none;stroke-width:0.264583px;stroke-linecap:butt;stroke-linejoin:miter;stroke-miterlimit:4;stroke-dasharray:none;stroke-dashoffset:0;stroke-opacity:1;color-rendering:auto;image-rendering:auto;shape-rendering:auto;text-rendering:auto;enable-background:accumulate;stop-color:#000000;stop-opacity:1"
         d="m 99.826172,3.1953125 c -2.664407,0.1469824 -5.380439,0.8129289 -7.541016,2.4101563 -1.671279,1.2355094 -2.918555,2.9575068 -3.880859,4.7832032 -0.962051,1.825217 -1.66144,3.767719 -2.416016,5.671875 -3.228852,8.147938 -7.641891,16.175254 -7.921875,24.988281 -0.205537,6.469693 1.946202,12.963351 5.867188,18.111328 3.92079,5.147722 9.566244,8.927727 15.78125,10.722656 3.619596,1.045362 7.514996,1.431453 11.177736,0.488282 1.83154,-0.471631 3.5861,-1.276326 5.0957,-2.421875 1.50983,-1.145726 2.76762,-2.637285 3.57227,-4.357422 1.37361,-2.936451 1.35403,-6.273874 1.71484,-9.445313 0.18037,-1.585417 0.46397,-3.164871 1.05664,-4.632812 0.59233,-1.467105 1.51294,-2.827251 2.7832,-3.75 1.08368,-0.787211 2.38752,-1.23606 3.71289,-1.517578 1.32582,-0.281613 2.68741,-0.405964 4.04297,-0.613282 1.35576,-0.207346 2.72305,-0.502847 3.96875,-1.113281 1.24709,-0.611111 2.37205,-1.562163 2.98243,-2.826172 0.36526,-0.756407 0.5329,-1.599836 0.52734,-2.435547 -0.006,-0.835424 -0.18093,-1.662671 -0.47656,-2.439453 -0.59113,-1.553176 -1.64304,-2.880564 -2.79883,-4.050781 -1.15547,-1.169892 -2.42658,-2.206561 -3.58984,-3.34375 -1.16301,-1.136937 -2.23017,-2.397321 -2.88086,-3.86914 -0.71091,-1.608017 -0.89872,-3.405481 -1.04297,-5.183594 -0.14429,-1.778568 -0.25966,-3.598588 -0.86524,-5.304688 -0.68475,-1.929165 -1.97544,-3.6093263 -3.55469,-4.9003904 -1.57875,-1.2906639 -3.43636,-2.2037057 -5.36914,-2.8300781 -3.86491,-1.2525398 -7.97279,-1.374658 -11.99023,-1.7246094 -2.63799,-0.2297905 -5.29183,-0.562934 -7.955078,-0.4160156 z m 0.01563,0.2636719 c 2.631458,-0.1451652 5.271258,0.185635 7.916018,0.4160156 4.02762,0.3508379 8.11439,0.4757972 11.93164,1.7128906 1.90831,0.6184443 3.7359,1.518243 5.28321,2.7832032 1.54682,1.2645599 2.80677,2.9072032 3.47264,4.7832032 0.5892,1.659975 0.70703,3.456717 0.85157,5.238281 0.14457,1.782018 0.33109,3.610738 1.06445,5.269531 0.67134,1.518515 1.76254,2.802547 2.9375,3.951172 1.1747,1.148374 2.44583,2.183533 3.58789,3.339844 1.14174,1.155987 2.16643,2.456453 2.73828,3.958984 0.28585,0.751072 0.45562,1.548349 0.46094,2.347657 0.005,0.799021 -0.15635,1.602649 -0.50196,2.318359 -0.57752,1.195979 -1.65532,2.112148 -2.86132,2.703125 -1.20739,0.591655 -2.54599,0.884197 -3.89063,1.089844 -1.34483,0.205676 -2.71224,0.329259 -4.05859,0.615234 -1.3468,0.28607 -2.68795,0.74613 -3.81446,1.564453 -1.32091,0.959544 -2.26635,2.360614 -2.87304,3.863281 -0.60635,1.501831 -0.89256,3.106386 -1.07422,4.703126 -0.36325,3.192875 -0.35098,6.497775 -1.69141,9.363281 -0.78464,1.677374 -2.01406,3.138101 -3.49219,4.259765 -1.47835,1.121841 -3.20113,1.909328 -5.00195,2.373047 -3.60199,0.927528 -7.45148,0.551736 -11.039056,-0.484375 C 93.626238,67.849611 88.028973,64.099998 84.144531,59 c -3.884247,-5.099743 -6.015998,-11.537878 -5.8125,-17.943359 0.277339,-8.729774 4.66506,-16.72922 7.902344,-24.898438 0.75661,-1.909288 1.453681,-3.841009 2.404297,-5.644531 0.950363,-1.8030422 2.175523,-3.4923809 3.802734,-4.6953126 2.103514,-1.5550431 4.770087,-2.2142739 7.400391,-2.359375 z"
         id="path907" />
    </g>
    <text
       xml:space="preserve"
       style="font-size:3.175px;line-height:1.25;font-family:sans-serif;letter-spacing:0px;word-spacing:0px;stroke-width:0.264583"
       x="96.181625"
       y="19.823362"
       id="text843"><tspan
         sodipodi:role="line"
         id="tspan841"
         x="96.181625"
         y="19.823362"
         style="stroke-width:0.264583">$\Huge D_1$</tspan></text>
    <text
       xml:space="preserve"
       style="font-size:3.175px;line-height:1.25;font-family:sans-serif;letter-spacing:0px;word-spacing:0px;stroke-width:0.264583"
       x="55.123329"
       y="57.29961"
       id="text847"><tspan
         sodipodi:role="line"
         id="tspan845"
         x="55.123329"
         y="57.29961"
         style="stroke-width:0.264583">$D_2$</tspan></text>
    <path
       id="path833-6"
       style="fill:#0003ff;fill-opacity:0.3;stroke:#0000fc;stroke-width:0.264583px;stroke-linecap:butt;stroke-linejoin:miter;stroke-opacity:1"
       d="m 81.026469,31.854307 c -0.449265,0.01302 -0.893995,0.06923 -1.334285,0.171567 -0.683599,2.521262 -1.140556,5.08609 -1.224214,7.719425 -0.204518,6.437587 1.937337,12.903464 5.839952,18.027324 3.902617,5.12386 9.523765,8.88872 15.711698,10.675835 3.60359,1.040736 7.47549,1.421106 11.10786,0.485756 0.86493,-0.222723 1.71158,-0.522343 2.52336,-0.895035 0.35223,-2.116902 2.30804,-3.595346 0.45216,-6.592364 -1.95879,-3.163196 4.19266,-3.058321 -5.87716,-9.490376 C 99.25741,46.227892 89.395224,31.611748 81.026469,31.854307 Z" />
    <text
       xml:space="preserve"
       style="font-size:3.175px;line-height:1.25;font-family:sans-serif;letter-spacing:0px;word-spacing:0px;stroke-width:0.264583"
       x="85.698555"
       y="52.628292"
       id="text847-7"><tspan
         sodipodi:role="line"
         id="tspan845-5"
         x="85.698555"
         y="52.628292"
         style="stroke-width:0.264583">$\Large D_1\cap D_2$</tspan></text>
  </g>
</svg>
